HIERARCHY
ROOT Hips
{
	OFFSET	0.00	0.00	0.00
	CHANNELS 6 Xposition Yposition Zposition Zrotation Xrotation Yrotation
	JOINT Chest
	{
		OFFSET	 0.000000	 4.570000	 0.000000
		CHANNELS 3 Zrotation Xrotation Yrotation
		JOINT Neck
		{
			OFFSET	 0.000000	 17.620001	 0.000000
			CHANNELS 3 Zrotation Xrotation Yrotation
			JOINT Head
			{
				OFFSET	 0.000000	 5.190000	 0.000000
				CHANNELS 3 Zrotation Xrotation Yrotation
				End Site 
				{
					OFFSET	 0.000000	 4.140008	 0.000000
				}
			}
		}
		JOINT LeftCollar
		{
			OFFSET	 1.060000	 15.330000	 01.760000
			CHANNELS 3 Zrotation Xrotation Yrotation
			JOINT LeftShoulder
			{
				OFFSET	 5.00000	 0.000000	 0.000000
				CHANNELS 3 Zrotation Xrotation Yrotation
				JOINT LeftElbow
				{
					OFFSET	 0.000000	-11.90000	 0.000000
					CHANNELS 3 Zrotation Xrotation Yrotation
					JOINT LeftWrist
					{
						OFFSET	 0.000000	-9.520000	 0.000000
						CHANNELS 3 Zrotation Xrotation Yrotation
						End Site 
						{
							OFFSET	 0.000000	-7.0	 0.000000
						}
					}
				}
			}
		}
		JOINT RightCollar
		{
			OFFSET	-1.060000	 15.330000	 01.760000
			CHANNELS 3 Zrotation Xrotation Yrotation
			JOINT RightShoulder
			{
				OFFSET	-5.000000	 0.000000	 0.000000
				CHANNELS 3 Zrotation Xrotation Yrotation
				JOINT RightElbow
				{
					OFFSET	 0.000000	-11.900000	 0.000000
					CHANNELS 3 Zrotation Xrotation Yrotation
					JOINT RightWrist
					{
						OFFSET	 0.000000	-9.520000	 0.000000
						CHANNELS 3 Zrotation Xrotation Yrotation
						End Site 
						{
							OFFSET	 0.000000	-7.0	 0.000000
						}
					}
				}
			}
		}
	}
	JOINT LeftHip
	{
		OFFSET	 3.430000	 0.000000	 0.000000
		CHANNELS 3 Zrotation Xrotation Yrotation
		JOINT LeftKnee
		{
			OFFSET	 0.000000	-19.0	 0.000000
			CHANNELS 3 Zrotation Xrotation Yrotation
			JOINT LeftAnkle
			{
				OFFSET	 0.000000	-15.00000	 0.000000
				CHANNELS 3 Zrotation Xrotation Yrotation
				End Site 
				{
					OFFSET	 0.000000	-3.0	 0.000000
				}
			}
		}
	}
	JOINT RightHip
	{
		OFFSET	-3.430000	 0.000000	 0.000000
		CHANNELS 3 Zrotation Xrotation Yrotation
		JOINT RightKnee
		{
			OFFSET	 0.000000	-19.0	 0.000000
			CHANNELS 3 Zrotation Xrotation Yrotation
			JOINT RightAnkle
			{
				OFFSET	 0.000000	-15.00000	 0.000000
				CHANNELS 3 Zrotation Xrotation Yrotation
				End Site 
				{
					OFFSET	 0.000000	-3.0	 0.000000
				}
			}
		}
	}
}
MOTION
Frames: 15
Frame Time: 0.033333333
0.000000	26.386787	0.000000	-5.206264	0.532783	92.937685	-0.291586	17.161056	5.826711	359.661086	-357.326992	-0.063030	357.310900	333.200142	-1.114956	31.548202	24.145942	7.758278	340.930823	351.593431	-9.348698	-336.387436	246.712518	-6.239037	6.290775	-1.725330	59.737024	340.946532	-336.537618	-16.529612	-7.762085	-2.711487	81.369851	-299.247655	188.992436	133.963980	194.216642	-189.426508	101.788756	3.625842	-30.254882	18.517790	-117.325899	115.049165	125.660451	327.785086	-349.518993	-26.021558	357.043512	333.585173	-1.063683	-11.585637	67.361612	11.349505	61.448451	-1.696439	15.781701	
0.175838	26.974150	0.067139	-4.801230	0.236083	92.913554	-0.156637	16.457528	5.852359	359.858998	-356.421992	-0.025815	357.207163	334.170739	-1.254228	32.089761	24.199839	6.795864	341.384293	347.838111	-8.955862	-329.704205	247.751527	-1.072157	3.740086	-1.043336	59.358140	341.060624	-336.591358	-17.028179	-7.217858	-6.983461	80.452953	-299.773934	189.372590	134.208050	196.102061	-188.845819	101.663859	4.611575	-28.445352	19.337735	-122.055491	116.047889	130.746660	329.854906	-347.769782	-26.193949	357.867178	336.065597	-0.555272	-10.783065	64.184488	10.155774	62.124660	0.401908	13.335320	
0.398433	28.096931	0.111438	-4.845589	-0.068667	92.921381	-0.060081	14.795926	5.930916	0.346007	5.195546	0.042595	356.935103	335.952817	-1.750009	33.007056	24.226610	6.038634	342.614191	342.862919	-8.263565	-328.576022	246.861198	-4.730468	-0.022229	1.983606	58.968819	341.278233	-336.751403	-18.412000	-7.955168	-12.995865	78.408322	-300.769803	190.265952	131.721328	-161.502072	171.599482	101.507516	4.854215	-25.319844	19.687067	-310.625192	-299.163725	-39.738866	331.319326	-343.516705	-24.933024	358.696199	339.636884	-0.117625	-9.842871	58.117935	8.415684	61.151898	3.092601	8.620954	
0.640438	29.908785	0.120863	-5.550004	-0.206246	92.936367	-0.173855	11.997799	6.060351	1.118456	7.509812	0.098227	356.726482	338.159733	-2.357779	33.797315	24.211423	5.970439	344.528447	335.973444	-7.381006	-329.726171	245.301893	-7.460883	-2.483577	4.812157	59.004869	341.468085	-337.015594	-20.478469	-9.457343	-21.427493	75.536569	-301.004243	191.442015	125.958589	-160.679144	170.014906	101.542562	4.155037	-21.152117	19.445589	-320.757231	-305.731990	-27.890973	333.804723	-336.148024	-22.488059	-0.737655	-15.737899	0.083292	-9.065268	48.172063	6.216454	59.330464	8.091657	0.428257	
0.835626	32.127538	0.101837	-6.913247	-0.194286	92.947787	-0.427628	8.473093	6.176731	1.994891	10.079343	0.085024	356.715936	340.112867	-2.769049	34.209889	24.148946	6.775912	346.677416	327.844563	-6.605392	-332.623783	244.970001	-9.271787	-0.758371	5.274347	59.026411	341.325389	-337.325658	-22.610386	-11.004856	-31.104281	72.537918	-299.619763	191.626744	121.989129	-162.249841	168.131877	101.752214	3.042474	-17.081309	18.971461	-329.010531	-315.210981	-17.478175	338.823300	-326.635374	-20.792495	-0.594483	-11.034650	0.041442	-8.277046	35.460845	3.688990	-303.295361	-344.365588	-10.118726	
0.869536	33.934368	0.084065	-8.623003	-0.273965	92.925643	-0.479122	5.427438	6.252703	2.534177	11.931911	0.023332	356.905296	340.757391	-2.610173	34.035320	24.056402	8.140303	348.578476	321.196385	-6.053400	-338.225030	245.908605	-16.246894	4.116501	3.033076	59.037777	340.754850	-337.512860	-23.708141	-12.491430	-38.118168	70.177309	-297.806075	188.695555	129.020999	-163.540979	170.661424	101.488453	2.837430	-15.643701	18.907905	-333.923267	-322.277904	-11.584510	346.572149	-319.005971	-22.094104	359.206168	351.023574	-0.078940	-7.154761	26.117908	1.885886	-307.900384	-337.288010	-18.692325	
0.734715	35.552493	0.091755	-11.086193	-0.624214	92.909230	-0.345621	2.370526	6.337442	-357.017420	-347.005866	-0.028943	357.122223	340.907627	-2.081154	35.015415	24.014016	8.359237	351.623511	315.659287	-4.950859	-349.470280	246.128865	-29.364222	5.956358	2.799421	58.933275	340.115325	-337.693231	-24.701652	-15.433036	-43.727382	67.241831	-295.912391	186.579931	131.488460	-164.229230	170.567413	101.499231	3.741594	-17.158381	19.335054	-337.553540	-326.114859	-8.404377	352.975642	-313.319920	-24.971569	359.150161	349.743542	-0.079896	-6.244014	21.424529	1.074371	-315.395615	-330.925006	-23.150978	
0.517495	37.240135	0.140888	-13.375325	-1.224672	92.864492	-0.023942	-0.001966	6.447881	-356.619248	-346.404536	-0.068214	357.039113	340.937653	-1.742826	37.853013	23.938699	8.308960	356.103131	311.241548	-3.014566	356.954719	245.727878	-40.349338	6.040497	3.562815	58.718315	339.130986	-337.901880	-25.750750	-19.934566	-48.173473	63.549629	-294.612060	183.637636	134.361142	-163.702500	171.118473	101.463188	5.438763	-19.956429	20.215787	-340.062487	-326.929919	-7.103670	354.794768	-310.638771	-26.624056	-0.454554	-13.346457	0.158766	-5.877939	21.410127	1.014780	-322.355086	-326.828504	-23.343861	
0.356827	38.588702	0.191145	-14.342294	-1.662565	92.882285	0.210849	-0.723926	6.516526	-356.325085	-346.239737	-0.083621	356.632799	340.976394	-1.890750	41.132310	23.830106	8.421916	-359.256684	309.049413	-0.738099	165.792415	-64.618369	132.837477	5.948280	4.439840	58.570715	337.952833	-338.092469	-26.610512	-24.102449	-50.325024	60.514682	-114.132267	-0.526453	-43.339806	-163.273960	171.971687	101.440881	6.883296	-21.909426	21.044132	-341.180890	-325.836515	-7.004130	353.996127	-310.857227	-27.033483	-0.133011	-15.645127	0.380970	-5.624510	23.519998	1.215801	-323.513868	-326.104313	-22.982681	
0.319661	39.446162	0.207471	-13.597995	-1.675218	93.037863	0.187001	0.437883	6.484376	-356.160860	-346.404345	-0.074634	356.016552	341.079120	-2.550567	43.862791	23.700156	8.918073	3.920514	-50.975743	0.955088	160.157604	-63.172500	130.607256	6.021929	5.274691	58.461773	336.734300	-338.244646	-27.213278	-26.481705	-50.148265	59.156294	-114.677848	2.065039	-42.546647	-163.458047	172.436604	101.455361	7.391001	-21.967845	21.351254	-340.992732	-324.025941	-7.637931	352.383766	-313.154985	-26.906606	-0.278217	-15.842519	0.315120	-5.307202	25.862955	1.411419	-317.307794	-328.092581	-23.661311	
0.366332	40.080008	0.160725	-11.799419	-1.168488	93.327784	-0.156971	2.732432	6.363325	-356.092913	-346.650915	-0.057683	355.505708	341.166519	-3.393701	45.843252	23.567876	9.659456	6.209704	-49.882021	2.234616	157.851323	-61.513140	129.788918	6.092334	6.037924	58.323230	335.580681	-338.403899	-27.849681	-27.680888	-48.755224	58.851811	-115.773493	4.159202	-42.575993	-164.116600	172.660170	101.481896	6.858856	-20.576870	21.033668	-340.204446	-322.574444	-8.443981	350.291487	-315.291250	-26.241004	358.825426	345.766105	-0.158870	-4.883005	27.230249	1.452508	-310.239396	-330.004105	-23.636011	
0.450814	40.564688	0.128245	-9.368567	-0.934625	93.026723	-0.044086	5.809370	6.296168	-356.382595	-346.810331	-0.044168	355.842163	341.274299	-3.270043	46.716666	23.422173	10.905441	7.848901	-46.517910	3.247168	158.238581	-58.901241	128.634424	4.520462	5.747529	58.217649	334.675599	-338.485178	-28.097562	-27.628087	-46.043807	59.640937	-118.248849	5.710716	-41.718548	-164.076220	173.568653	101.465681	6.951158	-18.280693	21.068457	-339.407609	-321.249469	-9.247087	347.682082	-316.822796	-25.401288	358.833704	348.382859	-0.192762	-5.444018	27.356181	1.613239	-308.789483	-330.476672	-21.322964	
0.421179	40.728103	0.137361	-8.691711	-1.315764	92.740258	0.537795	7.005116	6.315641	-356.687905	-346.861312	-0.038962	356.173564	341.438852	-3.002277	47.161844	23.335414	11.626034	8.165827	-43.315016	3.531186	159.514515	-56.885072	128.190599	2.842629	4.979312	58.158950	334.152024	-338.474659	-27.924259	-27.132996	-43.065697	60.712047	-120.505885	6.595738	-40.987322	-163.822766	174.349590	101.446563	7.737776	-18.455451	21.513034	-338.309888	-319.591864	-10.347774	346.749652	-317.914315	-25.388893	-0.453711	-11.318693	0.107782	-6.267755	27.615683	1.863365	-308.840191	-330.710893	-19.203208	
0.319819	40.639198	0.153382	-9.291314	-1.854386	92.515845	1.211723	6.822971	6.394592	-356.988105	-346.822926	-0.039391	356.333800	341.651107	-2.764968	47.196643	23.313518	11.831337	7.839786	-40.174243	3.471193	161.671174	-55.318988	128.776779	1.645926	3.974716	58.121698	334.020365	-338.384829	-27.397852	-26.550830	-39.708960	61.876417	-122.591237	6.942727	-40.588388	-163.644580	174.867414	101.429256	8.645955	-20.391922	22.086502	-336.939370	-317.736184	-11.721114	346.279298	-318.360491	-25.604843	0.271953	-12.649161	0.466290	-7.116902	27.975401	2.142416	-307.728919	-330.625843	-17.649534	
0.216318	40.349379	0.151423	-10.292332	-2.155314	92.171679	1.695665	6.174910	6.487317	-357.409255	-346.665805	-0.044289	356.337079	341.797710	-2.418875	46.551122	23.347290	11.733440	7.273808	-36.427945	3.301295	165.124723	-53.987685	130.562587	1.189814	2.708523	58.117211	334.352886	-338.192627	-26.383613	-26.069568	-35.826872	63.052794	-124.583043	6.613991	-41.171860	-163.848556	175.015205	101.404394	9.276433	-22.660188	22.519756	-335.765615	-316.043035	-12.991731	345.926122	-318.459610	-25.837461	0.568492	-14.450489	0.676171	-7.835020	28.218572	2.377470	-304.015782	-330.006373	-16.916997	
